<svg width="13" height="14" viewBox="0 0 13 14" fill="none" xmlns="http://www.w3.org/2000/svg">
<path d="M1 3.40039H2.22222H12" stroke="#FF546A" stroke-width="1.6" stroke-linecap="round" stroke-linejoin="round"/>
<path d="M4.0555 3.4V2.2C4.0555 1.88174 4.18427 1.57652 4.41348 1.35147C4.64269 1.12643 4.95357 1 5.27772 1H7.72217C8.04632 1 8.3572 1.12643 8.58641 1.35147C8.81562 1.57652 8.94439 1.88174 8.94439 2.2V3.4M10.7777 3.4V11.8C10.7777 12.1183 10.649 12.4235 10.4197 12.6485C10.1905 12.8736 9.87965 13 9.5555 13H3.44439C3.12024 13 2.80936 12.8736 2.58015 12.6485C2.35094 12.4235 2.22217 12.1183 2.22217 11.8V3.4H10.7777Z" stroke="#FF546A" stroke-width="1.6" stroke-linecap="round" stroke-linejoin="round"/>
</svg>
