<svg width="16" height="14" viewBox="0 0 16 14" fill="none" xmlns="http://www.w3.org/2000/svg">
<path d="M14.2158 7H10.3158L9.01582 9.25H6.41582L5.11582 7H1.21582" stroke="#FFFFFF" stroke-width="1.6" stroke-linecap="round" stroke-linejoin="round"/>
<path d="M3.45832 1.8325L1.21582 7V11.5C1.21582 11.8978 1.35278 12.2794 1.59658 12.5607C1.84038 12.842 2.17104 13 2.51582 13H12.9158C13.2606 13 13.5913 12.842 13.8351 12.5607C14.0789 12.2794 14.2158 11.8978 14.2158 11.5V7L11.9733 1.8325C11.8657 1.58259 11.6998 1.37228 11.4942 1.22521C11.2887 1.07814 11.0517 1.00015 10.8098 1H4.62182C4.37997 1.00015 4.14294 1.07814 3.9374 1.22521C3.73186 1.37228 3.56595 1.58259 3.45832 1.8325V1.8325Z" stroke="#FFFFFF" stroke-width="1.6" stroke-linecap="round" stroke-linejoin="round"/>
</svg>
