<svg width="210" height="41" viewBox="0 0 210 41" fill="none" xmlns="http://www.w3.org/2000/svg">
<path d="M21.063 35.884V40H3.591V9.76H8.505V35.884H21.063ZM44.1673 36.031L44.1463 40H25.2883V9.76H44.1463V13.729H30.2233V22.843H41.3533V26.686H30.2233V36.031H44.1673ZM73.5902 25.111V37.081C70.5802 39.251 67.0802 40.336 63.0902 40.336C60.6402 40.336 58.4212 39.958 56.4332 39.202C54.4592 38.432 52.7722 37.368 51.3722 36.01C49.9722 34.638 48.8942 33.007 48.1382 31.117C47.3822 29.227 47.0042 27.148 47.0042 24.88C47.0042 22.598 47.3682 20.512 48.0962 18.622C48.8242 16.718 49.8672 15.087 51.2252 13.729C52.5832 12.357 54.2212 11.3 56.1392 10.558C58.0572 9.802 60.2132 9.424 62.6072 9.424C63.8252 9.424 64.9522 9.522 65.9882 9.718C67.0382 9.9 68.0112 10.159 68.9072 10.495C69.8032 10.831 70.6292 11.237 71.3852 11.713C72.1412 12.189 72.8342 12.721 73.4642 13.309L72.0572 15.556C71.8332 15.906 71.5462 16.123 71.1962 16.207C70.8462 16.291 70.4682 16.207 70.0622 15.955C69.6562 15.717 69.2222 15.465 68.7602 15.199C68.3122 14.933 67.7942 14.688 67.2062 14.464C66.6182 14.226 65.9392 14.037 65.1692 13.897C64.3992 13.743 63.4892 13.666 62.4392 13.666C60.8432 13.666 59.4012 13.932 58.1132 14.464C56.8392 14.982 55.7472 15.731 54.8372 16.711C53.9272 17.677 53.2272 18.853 52.7372 20.239C52.2472 21.625 52.0022 23.172 52.0022 24.88C52.0022 26.686 52.2612 28.303 52.7792 29.731C53.2972 31.145 54.0322 32.349 54.9842 33.343C55.9362 34.323 57.0842 35.072 58.4282 35.59C59.7862 36.108 61.2982 36.367 62.9642 36.367C64.2102 36.367 65.3162 36.234 66.2822 35.968C67.2622 35.702 68.2212 35.331 69.1592 34.855V28.849H64.9382C64.6162 28.849 64.3642 28.765 64.1822 28.597C64.0002 28.415 63.9092 28.184 63.9092 27.904V25.111H73.5902ZM84.3229 40H79.3879V9.76H84.3229V40ZM107.3 14.926C107.146 15.178 106.985 15.367 106.817 15.493C106.649 15.605 106.439 15.661 106.187 15.661C105.921 15.661 105.62 15.549 105.284 15.325C104.962 15.101 104.556 14.856 104.066 14.59C103.59 14.31 103.023 14.058 102.365 13.834C101.707 13.596 100.923 13.477 100.013 13.477C99.1735 13.477 98.4315 13.582 97.7875 13.792C97.1575 14.002 96.6255 14.296 96.1915 14.674C95.7575 15.052 95.4285 15.5 95.2045 16.018C94.9945 16.522 94.8895 17.075 94.8895 17.677C94.8895 18.447 95.0925 19.091 95.4985 19.609C95.9045 20.113 96.4365 20.547 97.0945 20.911C97.7665 21.275 98.5295 21.597 99.3835 21.877C100.237 22.143 101.105 22.43 101.987 22.738C102.883 23.046 103.758 23.396 104.612 23.788C105.466 24.18 106.222 24.677 106.88 25.279C107.552 25.881 108.091 26.616 108.497 27.484C108.903 28.352 109.106 29.409 109.106 30.655C109.106 31.999 108.875 33.259 108.413 34.435C107.951 35.611 107.279 36.64 106.397 37.522C105.529 38.39 104.451 39.076 103.163 39.58C101.889 40.084 100.433 40.336 98.7955 40.336C97.8295 40.336 96.8845 40.238 95.9605 40.042C95.0505 39.86 94.1755 39.601 93.3355 39.265C92.5095 38.915 91.7325 38.495 91.0045 38.005C90.2765 37.515 89.6255 36.969 89.0515 36.367L90.4795 34.015C90.6055 33.819 90.7665 33.665 90.9625 33.553C91.1585 33.441 91.3755 33.385 91.6135 33.385C91.9355 33.385 92.2925 33.539 92.6845 33.847C93.0765 34.141 93.5455 34.47 94.0915 34.834C94.6515 35.184 95.3235 35.513 96.1075 35.821C96.8915 36.115 97.8295 36.262 98.9215 36.262C100.699 36.262 102.071 35.828 103.037 34.96C104.017 34.092 104.507 32.895 104.507 31.369C104.507 30.515 104.304 29.822 103.898 29.29C103.492 28.744 102.953 28.289 102.281 27.925C101.623 27.561 100.867 27.253 100.013 27.001C99.1595 26.749 98.2915 26.483 97.4095 26.203C96.5275 25.909 95.6595 25.573 94.8055 25.195C93.9515 24.803 93.1885 24.299 92.5165 23.683C91.8585 23.053 91.3265 22.283 90.9205 21.373C90.5145 20.449 90.3115 19.301 90.3115 17.929C90.3115 16.837 90.5215 15.78 90.9415 14.758C91.3755 13.736 91.9985 12.833 92.8105 12.049C93.6365 11.251 94.6515 10.614 95.8555 10.138C97.0595 9.662 98.4315 9.424 99.9715 9.424C101.707 9.424 103.296 9.697 104.738 10.243C106.194 10.789 107.447 11.566 108.497 12.574L107.3 14.926ZM135.226 13.855H125.797V40H120.904V13.855H111.454V9.76H135.226V13.855ZM144.37 40H139.435V9.76H144.37V40ZM156.469 13.729V23.41H168.292V27.379H156.469V40H151.534V9.76H170.392V13.729H156.469ZM187.504 28.156V40H182.611V28.156L171.565 9.76H175.87C176.304 9.76 176.647 9.865 176.899 10.075C177.151 10.285 177.361 10.551 177.529 10.873L183.724 21.709C184.004 22.255 184.256 22.773 184.48 23.263C184.718 23.753 184.928 24.236 185.11 24.712C185.264 24.222 185.453 23.739 185.677 23.263C185.901 22.773 186.153 22.255 186.433 21.709L192.586 10.873C192.726 10.593 192.929 10.341 193.195 10.117C193.461 9.879 193.804 9.76 194.224 9.76H198.55L187.504 28.156Z" fill="#011627"/>
<circle cx="205" cy="5" r="4.5" stroke="#011627"/>
<path d="M204.905 4.96212C205.032 4.96212 205.142 4.94628 205.235 4.91462C205.33 4.88295 205.407 4.83962 205.467 4.78462C205.529 4.72795 205.575 4.66128 205.605 4.58462C205.635 4.50795 205.65 4.42378 205.65 4.33212C205.65 4.14878 205.589 4.00795 205.467 3.90962C205.347 3.81128 205.163 3.76212 204.915 3.76212H204.485V4.96212H204.905ZM206.635 6.85712H206.027C205.912 6.85712 205.829 6.81212 205.777 6.72212L205.017 5.56462C204.989 5.52128 204.957 5.49045 204.922 5.47212C204.889 5.45378 204.839 5.44462 204.772 5.44462H204.485V6.85712H203.812V3.24212H204.915C205.16 3.24212 205.37 3.26795 205.545 3.31962C205.722 3.36962 205.866 3.44045 205.977 3.53212C206.091 3.62378 206.174 3.73378 206.227 3.86212C206.281 3.98878 206.307 4.12878 206.307 4.28212C206.307 4.40378 206.289 4.51878 206.252 4.62712C206.217 4.73545 206.166 4.83378 206.097 4.92212C206.031 5.01045 205.947 5.08795 205.847 5.15462C205.749 5.22128 205.637 5.27378 205.51 5.31212C205.553 5.33712 205.593 5.36712 205.63 5.40212C205.667 5.43545 205.7 5.47545 205.73 5.52212L206.635 6.85712Z" fill="#011627"/>
</svg>
