<svg width="50" height="50" viewBox="0 0 50 50" fill="none" xmlns="http://www.w3.org/2000/svg">
<path d="M48.279 27.3516L24.7171 16.9236C24.5764 16.8607 24.4254 16.8281 24.2728 16.8276C24.1202 16.8272 23.9691 16.859 23.828 16.9211C23.687 16.9832 23.5588 17.0745 23.4508 17.1897C23.3429 17.3049 23.2572 17.4418 23.1989 17.5924L22.631 19.0662L20.3826 18.063L21.7618 14.6201L22.7701 15.0659C22.9084 15.1328 23.0587 15.1666 23.2105 15.165C23.4412 15.1662 23.6671 15.0938 23.8591 14.957C24.0512 14.8202 24.2006 14.6253 24.2883 14.3972L26.2817 9.14605C26.3407 8.99499 26.3711 8.83293 26.3711 8.66924C26.3711 8.50556 26.3407 8.3435 26.2817 8.19243C26.1591 7.89347 25.9357 7.65474 25.6559 7.52366L11.1108 1.096C10.9701 1.03306 10.8191 1.00044 10.6665 1C10.514 0.999569 10.3628 1.03133 10.2217 1.09346C10.0807 1.1556 9.95249 1.24689 9.84452 1.36209C9.73656 1.47729 9.65094 1.61413 9.59258 1.76478L7.56439 7.02827C7.44905 7.3306 7.4501 7.66937 7.5673 7.97088C7.6845 8.27239 7.90838 8.51225 8.19023 8.63828L9.19853 9.08413L5.65209 18.2612L4.6322 17.8153C4.34928 17.6921 4.03225 17.6932 3.7501 17.8185C3.46794 17.9437 3.24348 18.1829 3.12554 18.4841L1.08575 23.76C0.970416 24.0623 0.971461 24.4011 1.08866 24.7026C1.20587 25.0041 1.42975 25.244 1.7116 25.37L16.2451 31.7977C16.3894 31.8564 16.5427 31.8858 16.6971 31.8844C16.8477 31.8863 16.9973 31.8569 17.1375 31.7977C17.4207 31.672 17.6457 31.4315 17.7633 31.1289L19.8031 25.8654C19.862 25.715 19.8925 25.5536 19.8929 25.3906C19.8933 25.2276 19.8636 25.066 19.8055 24.9153C19.7473 24.7646 19.6619 24.6276 19.5541 24.5122C19.4463 24.3968 19.3182 24.3054 19.1773 24.243L18.1574 23.76L19.4438 20.3542L21.6922 21.345L21.1243 22.8188C21.0084 23.1203 21.0084 23.4585 21.1243 23.76C21.1813 23.9121 21.2659 24.0507 21.3734 24.1676C21.4808 24.2845 21.6089 24.3775 21.7502 24.4411L45.3699 34.9062C45.5099 34.9674 45.6592 35.001 45.8104 35.0053C46.0411 35.0065 46.267 34.9341 46.459 34.7973C46.6511 34.6605 46.8005 34.4656 46.8882 34.2374L48.9048 29.0111C48.9675 28.8633 49 28.7028 49 28.5405C49 28.3782 48.9675 28.2177 48.9048 28.0699C48.8518 27.9109 48.7689 27.7652 48.6613 27.6416C48.5537 27.5181 48.4236 27.4194 48.279 27.3516ZM11.331 3.85779L23.732 9.34421L22.573 12.3042L10.1721 6.83011L11.331 3.85779ZM16.0944 29.0359L3.67026 23.5495L4.82922 20.5771L17.2302 26.0635L16.0944 29.0359ZM11.331 10.0378L19.5597 13.6789L15.9669 22.8559L7.85413 19.2148L11.331 10.0378ZM45.1729 32.0949L23.7552 22.6206L24.9141 19.6854L46.3319 29.1597L45.1729 32.0949ZM40.9659 40.9623H13C12.6926 40.9623 12.3978 41.0928 12.1804 41.3251C11.9631 41.5573 11.841 41.8723 11.841 42.2008V46.5231H9.59258C9.28521 46.5231 8.99042 46.6535 8.77307 46.8858C8.55572 47.1181 8.43362 47.4331 8.43362 47.7615C8.43362 48.09 8.55572 48.405 8.77307 48.6373C8.99042 48.8695 9.28521 49 9.59258 49H44.3616C44.669 49 44.9638 48.8695 45.1812 48.6373C45.3985 48.405 45.5206 48.09 45.5206 47.7615C45.5206 47.4331 45.3985 47.1181 45.1812 46.8858C44.9638 46.6535 44.669 46.5231 44.3616 46.5231H42.1248V42.2008C42.1248 41.8723 42.0027 41.5573 41.7854 41.3251C41.568 41.0928 41.2732 40.9623 40.9659 40.9623ZM14.1589 46.5231V43.4393H39.8069V46.5231H14.1589Z" fill="#2667FF" stroke="#2667FF" stroke-width="1.2"/>
</svg>
