<svg width="13" height="14" viewBox="0 0 13 14" fill="none" xmlns="http://www.w3.org/2000/svg">
<path d="M10.0002 4.6C10.9943 4.6 11.8002 3.79411 11.8002 2.8C11.8002 1.80589 10.9943 1 10.0002 1C9.00608 1 8.2002 1.80589 8.2002 2.8C8.2002 3.79411 9.00608 4.6 10.0002 4.6Z" stroke="#ED7F09" stroke-width="1.5" stroke-linecap="round" stroke-linejoin="round"/>
<path d="M2.8 8.79922C3.79411 8.79922 4.6 7.99333 4.6 6.99922C4.6 6.00511 3.79411 5.19922 2.8 5.19922C1.80589 5.19922 1 6.00511 1 6.99922C1 7.99333 1.80589 8.79922 2.8 8.79922Z" stroke="#ED7F09" stroke-width="1.5" stroke-linecap="round" stroke-linejoin="round"/>
<path d="M10.0002 13.0004C10.9943 13.0004 11.8002 12.1945 11.8002 11.2004C11.8002 10.2063 10.9943 9.40039 10.0002 9.40039C9.00608 9.40039 8.2002 10.2063 8.2002 11.2004C8.2002 12.1945 9.00608 13.0004 10.0002 13.0004Z" stroke="#ED7F09" stroke-width="1.5" stroke-linecap="round" stroke-linejoin="round"/>
<path d="M4.354 7.90625L8.452 10.2942" stroke="#ED7F09" stroke-width="1.5" stroke-linecap="round" stroke-linejoin="round"/>
<path d="M8.446 3.70508L4.354 6.09308" stroke="#ED7F09" stroke-width="1.5" stroke-linecap="round" stroke-linejoin="round"/>
</svg>
