<svg width="15" height="14" viewBox="0 0 15 14" fill="none" xmlns="http://www.w3.org/2000/svg">
<path d="M7.1332 0C3.279 0 0.141439 3.13486 0.140039 6.98906C0.139339 8.22106 0.462028 9.42379 1.07383 10.4836L0.125 14L3.7877 13.1346C4.809 13.6918 5.9587 13.9843 7.1291 13.985H7.13184C10.9853 13.985 14.1215 10.8494 14.1236 6.9959C14.125 5.1276 13.3985 3.37101 12.0783 2.04941C10.7581 0.728514 9.0036 0.0007 7.1332 0ZM7.13184 1.4C8.62704 1.4007 10.0322 1.98366 11.0885 3.03926C12.1448 4.09626 12.725 5.50073 12.7236 6.99453C12.7222 10.0773 10.2147 12.585 7.13047 12.585C6.19737 12.5843 5.27308 12.35 4.45898 11.9055L3.9873 11.6484L3.46641 11.7715L2.08828 12.0969L2.42461 10.8473L2.57637 10.2867L2.28652 9.78359C1.79792 8.93799 1.53934 7.97116 1.54004 6.98906C1.54144 3.90766 4.04974 1.4 7.13184 1.4ZM4.65859 3.7625C4.54169 3.7625 4.35268 3.80625 4.19238 3.98125C4.03208 4.15555 3.57988 4.5777 3.57988 5.4373C3.57988 6.2969 4.20605 7.12783 4.29355 7.24473C4.38035 7.36093 5.50222 9.18066 7.27812 9.88066C8.75373 10.4624 9.05342 10.3476 9.37402 10.3182C9.69462 10.2895 10.4083 9.89638 10.5539 9.48828C10.6995 9.08018 10.6998 8.72913 10.6564 8.65703C10.613 8.58423 10.4965 8.54082 10.3215 8.45332C10.1472 8.36582 9.28823 7.94404 9.12793 7.88594C8.96763 7.82784 8.85038 7.79844 8.73418 7.97344C8.61798 8.14844 8.28404 8.54083 8.18184 8.65703C8.07964 8.77393 7.97813 8.78965 7.80312 8.70215C7.62812 8.61395 7.06546 8.42898 6.39766 7.83398C5.87826 7.37128 5.52779 6.80039 5.42559 6.62539C5.32409 6.45109 5.41602 6.35535 5.50352 6.26855C5.58192 6.19015 5.67715 6.0645 5.76465 5.9623C5.85145 5.8601 5.88155 5.78729 5.93965 5.67109C5.99775 5.55489 5.96801 5.45234 5.92461 5.36484C5.88121 5.27734 5.54134 4.41455 5.38594 4.06875C5.25504 3.77825 5.11679 3.7715 4.99219 3.7666C4.89069 3.7624 4.77479 3.7625 4.65859 3.7625Z" fill="#09BD2D"/>
</svg>
